<?xml version="1.0" encoding="UTF-8"?>
<svg id="_Слой_1" data-name="Слой 1" xmlns="http://www.w3.org/2000/svg" viewBox="0 0 147.26 53.47">
  <defs>
    <style>
      .cls-1 {
        fill: #fefefe;
        stroke-width: 0px;
      }
    </style>
  </defs>
  <g>
    <path class="cls-1" d="m29.59,15.52c2.2-.02,3.46-1.67,3.52-3.5-.03-1.97-1.45-3.57-3.59-3.56-1.97,0-3.46,1.47-3.47,3.54,0,2.05,1.48,3.53,3.54,3.52Z"/>
    <path class="cls-1" d="m22.53,22.57s.03,0,.05,0c.79-.01,1.55.3,2.1.87l.56.57c.54.55.82,1.29.81,2.05,0,.02,0,.03,0,.05,0,2.05,1.48,3.53,3.54,3.52,2.2-.02,3.46-1.67,3.52-3.5,0-.03,0-.06,0-.09-.03-.8.28-1.57.84-2.14l.49-.49c.56-.56,1.32-.86,2.1-.84.04,0,.07,0,.11,0,2.2-.02,3.46-1.67,3.52-3.5-.03-1.97-1.45-3.57-3.59-3.56-1.97,0-3.46,1.47-3.47,3.54,0,.03,0,.07,0,.1.02.78-.29,1.54-.85,2.09l-.48.48c-.56.56-1.33.87-2.12.84-.04,0-.09,0-.13,0-.04,0-.07,0-.11,0-.8.02-1.58-.3-2.14-.87l-.41-.42c-.56-.57-.85-1.36-.82-2.16,0-.02,0-.03,0-.05-.03-1.97-1.45-3.57-3.59-3.56-1.97,0-3.46,1.47-3.47,3.54,0,2.05,1.48,3.53,3.54,3.52Z"/>
    <path class="cls-1" d="m15.48,30.9s.05,0,.08,0c.79-.02,1.55.28,2.11.84l.48.48c.56.56.87,1.32.85,2.11,0,.03,0,.07,0,.11,0,2.05,1.48,3.53,3.54,3.52.03,0,.05,0,.08,0,.79-.02,1.55.28,2.11.84l.48.48c.56.56.87,1.32.85,2.11,0,.03,0,.07,0,.11,0,2.05,1.48,3.53,3.54,3.52,2.2-.02,3.46-1.67,3.52-3.5,0-.03,0-.06,0-.09-.03-.8.28-1.57.84-2.14l.49-.49c.56-.56,1.32-.86,2.1-.84.04,0,.07,0,.11,0,2.2-.02,3.46-1.67,3.52-3.5,0-.03,0-.06,0-.09-.03-.8.28-1.57.84-2.14l.49-.49c.56-.56,1.32-.86,2.1-.84.04,0,.07,0,.11,0,2.2-.02,3.46-1.67,3.52-3.5-.03-1.97-1.45-3.57-3.59-3.56-1.97,0-3.46,1.47-3.47,3.54,0,.03,0,.07,0,.1.02.78-.29,1.54-.85,2.09l-.48.48c-.56.56-1.33.87-2.12.84-.04,0-.09,0-.13,0-1.97,0-3.46,1.47-3.47,3.54,0,.03,0,.07,0,.1.02.78-.29,1.54-.85,2.09l-.48.48c-.56.56-1.33.87-2.12.84-.04,0-.09,0-.13,0-.02,0-.03,0-.05,0-.78.01-1.54-.29-2.09-.84l-.49-.49c-.57-.57-.87-1.35-.84-2.16,0,0,0,0,0-.01-.03-1.97-1.45-3.57-3.59-3.56-.02,0-.03,0-.05,0-.78.01-1.54-.29-2.09-.84l-.49-.49c-.57-.57-.87-1.35-.84-2.16,0,0,0,0,0-.01-.03-1.97-1.45-3.57-3.59-3.56-1.97,0-3.46,1.47-3.47,3.54,0,2.05,1.48,3.53,3.54,3.52Z"/>
  </g>
  <g>
    <path class="cls-1" d="m67.38,24.93c-.25-.93-.7-1.75-1.34-2.44-.74-.8-1.67-1.36-2.77-1.66-.59-.16-1.21-.25-1.84-.25-.23,0-.93,0-1.77.22-1.02.27-1.91.77-2.64,1.48-.76.74-1.28,1.65-1.55,2.7-.18.69-.2,1.27-.19,1.64v6.28h2.05v-6.29h0s0-.03,0-.04c-.01-.39.02-1.75,1.12-2.82.74-.73,1.77-1.11,2.96-1.11,0,0,0,0,0,0,.73,0,2.1.17,3.12,1.26.91.98,1.01,2.15,1,2.61,0,0,0,0,0,0h0v6.39h2.05v-6.39h0c0-.51-.07-1.06-.21-1.57Z"/>
    <path class="cls-1" d="m96.12,24.94c-.25-.93-.7-1.75-1.34-2.44-.74-.8-1.67-1.36-2.77-1.66-.59-.16-1.21-.25-1.84-.25-.23,0-.93,0-1.77.22-1.02.27-1.91.77-2.64,1.48-.76.74-1.28,1.65-1.55,2.7-.18.69-.2,1.27-.19,1.64v6.28h2.05v-6.29h0s0-.03,0-.04c-.01-.39.02-1.75,1.12-2.82.74-.73,1.77-1.11,2.96-1.11,0,0,0,0,0,0,.73,0,2.1.17,3.12,1.26.91.98,1.01,2.15,1,2.61,0,0,0,0,0,0h0v6.39h2.05v-6.39h0c0-.51-.07-1.06-.21-1.57Z"/>
    <path class="cls-1" d="m75.79,20.61s-.01,0-.02,0c-1.71,0-3.28.62-4.4,1.75-1.13,1.13-1.74,2.71-1.73,4.43,0,.91.18,1.77.52,2.54.32.74.78,1.39,1.37,1.93,1.1,1.02,2.59,1.61,4.19,1.66h.03s.03,0,.03,0c1.68-.03,3.23-.65,4.36-1.75.58-.56,1.03-1.23,1.34-1.98.32-.78.48-1.62.48-2.51,0-1.67-.63-3.2-1.75-4.32-1.13-1.12-2.7-1.75-4.42-1.75Zm-.03,10.26c-2.01-.08-4.05-1.37-4.07-4.1,0-1.17.39-2.23,1.13-2.97.73-.74,1.78-1.14,2.94-1.14,0,0,0,0,.01,0,2.38,0,4.12,1.7,4.12,4.02,0,2.42-1.7,4.13-4.14,4.19Z"/>
    <polygon class="cls-1" points="97.35 22.64 101.46 22.64 101.46 32.9 103.51 32.9 103.51 22.64 107.62 22.64 107.62 20.59 97.35 20.59 97.35 22.64"/>
    <path class="cls-1" d="m111.95,23.65c.98-.91,2.15-1.01,2.61-1h0s0,0,0,0h6.39v-2.05h-6.39c-.51,0-1.06.07-1.57.21-.93.25-1.75.7-2.44,1.34-.8.74-1.36,1.67-1.66,2.77-.16.59-.25,1.21-.25,1.84,0,.23,0,.93.22,1.77.27,1.02.77,1.91,1.48,2.64.74.76,1.65,1.28,2.7,1.55.59.15,1.11.19,1.47.19.06,0,.11,0,.17,0h6.28v-2.05h-6.29s-.03,0-.04,0c-.39.01-1.74-.02-2.82-1.12-.51-.52-.85-1.18-1.01-1.95h10.16v-2.05h-10.15c.14-.67.46-1.45,1.15-2.09Z"/>
    <path class="cls-1" d="m135.32,30.88h-6.29s-.02,0-.03,0c-.39.01-1.75-.04-2.83-1.13-1.14-1.15-1.12-2.63-1.11-2.92,0-.02,0-.04,0-.06h0v-6.16h-2.05v6.14c-.03.65.02,2.75,1.7,4.45.74.75,1.65,1.26,2.69,1.54.64.17,1.18.2,1.51.2.04,0,.08,0,.12,0h6.28v-2.05Z"/>
  </g>
</svg>